<svg width="20" height="21" viewBox="0 0 20 21" fill="none" xmlns="http://www.w3.org/2000/svg">
<path d="M14.9999 10.5L19.9999 5.5L14.9999 0.5V3.5H10.9999V7.5H14.9999V10.5ZM16.9999 15C15.7499 15 14.5499 14.8 13.4299 14.43C13.0799 14.32 12.6899 14.4 12.4099 14.67L10.2099 16.87C7.37994 15.43 5.05994 13.12 3.61994 10.28L5.81994 8.07C6.09994 7.81 6.17994 7.42 6.06994 7.07C5.69994 5.95 5.49994 4.75 5.49994 3.5C5.49994 2.95 5.04994 2.5 4.49994 2.5H0.999939C0.449939 2.5 -6.10352e-05 2.95 -6.10352e-05 3.5C-6.10352e-05 12.89 7.60994 20.5 16.9999 20.5C17.5499 20.5 17.9999 20.05 17.9999 19.5V16C17.9999 15.45 17.5499 15 16.9999 15Z" fill="#38772E"/>
</svg>
